<svg xmlns="http://www.w3.org/2000/svg" xmlns:xlink="http://www.w3.org/1999/xlink" viewBox="0 0 55.59 53.22"><defs><style>.cls-1,.cls-4{fill:none;}.cls-2{clip-path:url(#clip-path);}.cls-3{fill:#f36e44;}.cls-4{stroke:#000;stroke-linecap:round;stroke-linejoin:round;stroke-width:1.5px;}</style><clipPath id="clip-path" transform="translate(-0.2 -1.39)"><rect class="cls-1" width="56" height="56"/></clipPath></defs><title>Asset 20</title><g id="Layer_2" data-name="Layer 2"><g id="Layer_1-2" data-name="Layer 1"><g class="cls-2"><polygon class="cls-3" points="9.68 33.18 27.8 22.02 46.4 33.34 27.82 43.67 9.68 33.18"/><path class="cls-4" d="M32.29,52.56C45.19,51.51,55.05,45.83,55.05,39a8.51,8.51,0,0,0-2.37-5.64" transform="translate(-0.2 -1.39)"/><path class="cls-4" d="M2.81,34A8.17,8.17,0,0,0,1,39C1,45.9,11,51.63,24.1,52.59" transform="translate(-0.2 -1.39)"/><circle class="cls-4" cx="28.04" cy="51.34" r="1.13"/><polygon class="cls-4" points="46.4 11.66 28.04 22.42 28.04 43.94 46.4 33.18 46.4 11.66"/><polygon class="cls-4" points="9.68 11.66 28.04 22.42 28.04 43.94 9.68 33.18 9.68 11.66"/><polygon class="cls-4" points="9.68 11.66 28.04 22.42 46.4 11.51 28.04 0.75 9.68 11.66"/><line class="cls-4" x1="27.8" y1="1" x2="27.8" y2="5.24"/><line class="cls-4" x1="27.8" y1="18.87" x2="27.8" y2="23.12"/><line class="cls-4" x1="27.8" y1="9.46" x2="27.8" y2="13.71"/><line class="cls-4" x1="42.34" y1="30.84" x2="46.4" y2="33.18"/><line class="cls-4" x1="35.57" y1="26.92" x2="39.52" y2="29.21"/><polyline class="cls-4" points="22.97 25.29 27.8 22.42 32.93 25.39"/><line class="cls-4" x1="16.06" y1="29.4" x2="19.87" y2="27.13"/><line class="cls-4" x1="9.68" y1="33.18" x2="13.19" y2="31.1"/><polyline class="cls-4" points="51.89 34.55 51.5 31.1 54.84 31.64"/></g></g></g></svg>