<svg xmlns="http://www.w3.org/2000/svg" viewBox="0 0 56 56"><defs><style>.cls-1,.cls-3{fill:none;}.cls-1,.cls-2{stroke:#000;stroke-linecap:round;stroke-linejoin:round;stroke-width:1.5px;}.cls-2{fill:#352f8a;}</style></defs><title>Asset 18</title><g id="Layer_2" data-name="Layer 2"><g id="Layer_1-2" data-name="Layer 1"><path class="cls-1" d="M7.59,45.31H6a3,3,0,0,1-3-3V6.12a3,3,0,0,1,3-3H50a3,3,0,0,1,3,3V42.31a3,3,0,0,1-3,3H48.21"/><line class="cls-1" x1="18.91" y1="45.31" x2="14.51" y2="45.31"/><line class="cls-1" x1="30.54" y1="45.31" x2="25.57" y2="45.31"/><line class="cls-1" x1="41.75" y1="45.31" x2="36.97" y2="45.31"/><line class="cls-1" x1="3.03" y1="10.13" x2="52.97" y2="10.13"/><line class="cls-1" x1="24.18" y1="6.62" x2="47.47" y2="6.62"/><circle class="cls-1" cx="16.69" cy="6.62" r="0.73"/><circle class="cls-1" cx="12.65" cy="6.62" r="0.73"/><circle class="cls-1" cx="8.61" cy="6.62" r="0.73"/><circle class="cls-1" cx="21.78" cy="19.39" r="2.91"/><circle class="cls-1" cx="45.09" cy="19.39" r="2.91"/><circle class="cls-1" cx="10.86" cy="30.31" r="2.91"/><circle class="cls-1" cx="33.58" cy="30.31" r="2.91"/><line class="cls-1" x1="12.9" y1="28.25" x2="19.73" y2="21.42"/><line class="cls-1" x1="23.95" y1="21.31" x2="30.89" y2="28.25"/><line class="cls-1" x1="35.89" y1="28.56" x2="43.03" y2="21.42"/><line class="cls-1" x1="7.33" y1="20.56" x2="12.65" y2="20.56"/><line class="cls-1" x1="7.33" y1="15.42" x2="12.65" y2="15.42"/><circle class="cls-1" cx="16.31" cy="15.42" r="0.7"/><line class="cls-1" x1="3.03" y1="52.88" x2="52.97" y2="52.88"/><rect class="cls-2" x="7.73" y="41.76" width="6.44" height="11.11"/><rect class="cls-2" x="30.54" y="39.01" width="6.44" height="13.87"/><rect class="cls-2" x="19.13" y="30.41" width="6.44" height="22.47"/><polyline class="cls-2" points="41.77 40.86 41.77 52.88 48.21 52.88 48.21 28.85 41.77 28.85 41.77 34.02"/><circle class="cls-1" cx="41.75" cy="37.6" r="0.7"/><rect class="cls-3" width="56" height="56"/></g></g></svg>