<svg xmlns="http://www.w3.org/2000/svg" viewBox="0 0 56 56"><defs><style>.cls-1,.cls-3{fill:none;}.cls-1{stroke:#000;stroke-linecap:round;stroke-linejoin:round;stroke-width:1.5px;}.cls-2{fill:#0598a8;}</style></defs><title>Asset 22</title><g id="Layer_2" data-name="Layer 2"><g id="Layer_1-2" data-name="Layer 1"><path class="cls-1" d="M28,53.25C49.26,47.93,48.32,29,48.32,29V10.56L28,2.75H28L7.68,10.57V29S6.66,48.08,28,53.25Z"/><polygon class="cls-2" points="27.97 27.98 27.97 8.01 43.57 14.35 43.57 27.5 27.97 27.71 12.5 27.71 13.01 35.84 19.91 44.45 27.97 47.41 27.97 27.98"/><path class="cls-1" d="M28,47.78c16.67-4.17,15.94-19,15.94-19V14.34L28,8.22h0l-15.9,6.12V28.79S11.28,43.73,28,47.78Z"/><line class="cls-1" x1="12.08" y1="27.71" x2="43.92" y2="27.71"/><line class="cls-1" x1="28.02" y1="8.22" x2="28.02" y2="14.65"/><line class="cls-1" x1="28" y1="23.2" x2="28" y2="47.78"/><circle class="cls-1" cx="28.04" cy="19.15" r="0.68"/><rect class="cls-3" width="56" height="56"/></g></g></svg>