<svg xmlns="http://www.w3.org/2000/svg" viewBox="0 0 56 56"><defs><style>.cls-1,.cls-3{fill:none;}.cls-1,.cls-2{stroke:#000;stroke-miterlimit:10;stroke-width:1.5px;}.cls-2{fill:#25b9a2;}</style></defs><title>Asset 15</title><g id="Layer_2" data-name="Layer 2"><g id="Layer_1-2" data-name="Layer 1"><path class="cls-1" d="M3.18,16.17H52.82a.89.89,0,0,1,.89.89V25.5a3,3,0,0,1-3,3H5.3a3,3,0,0,1-3-3V17.05A.89.89,0,0,1,3.18,16.17Z"/><path class="cls-1" d="M45.65,2.69H9.88a2.15,2.15,0,0,0-2,1.25L2.49,15.74a.31.31,0,0,0,.28.43H53.21a.3.3,0,0,0,.27-.44L47.59,3.88A2.15,2.15,0,0,0,45.65,2.69Z"/><rect class="cls-2" x="2.3" y="28.57" width="51.41" height="12.34" rx="3"/><rect class="cls-1" x="2.3" y="40.97" width="51.41" height="12.34" rx="3"/><circle class="cls-1" cx="45.15" cy="22.27" r="2.2"/><circle class="cls-1" cx="25.2" cy="22.27" r="0.58"/><line class="cls-1" x1="16.49" y1="22.34" x2="21.41" y2="22.34"/><line class="cls-1" x1="8.23" y1="22.34" x2="13.16" y2="22.34"/><circle class="cls-1" cx="45.15" cy="34.74" r="2.2"/><circle class="cls-1" cx="25.2" cy="34.74" r="0.58"/><line class="cls-1" x1="16.49" y1="34.8" x2="21.41" y2="34.8"/><line class="cls-1" x1="8.23" y1="34.8" x2="13.16" y2="34.8"/><circle class="cls-1" cx="45.15" cy="47.2" r="2.2"/><circle class="cls-1" cx="25.2" cy="47.2" r="0.58"/><line class="cls-1" x1="16.49" y1="47.27" x2="21.41" y2="47.27"/><line class="cls-1" x1="8.23" y1="47.27" x2="13.16" y2="47.27"/><rect class="cls-3" width="56" height="56"/></g></g></svg>