<svg xmlns="http://www.w3.org/2000/svg" viewBox="0 0 56 56"><defs><style>.cls-1{fill:#db3427;}.cls-1,.cls-2,.cls-3,.cls-4{stroke:#000;stroke-width:1.5px;}.cls-1,.cls-2,.cls-4{stroke-miterlimit:10;}.cls-2,.cls-3,.cls-4,.cls-5{fill:none;}.cls-2,.cls-3{stroke-linecap:round;}.cls-3{stroke-linejoin:round;}</style></defs><title>Asset 17</title><g id="Layer_2" data-name="Layer 2"><g id="Layer_1-2" data-name="Layer 1"><path class="cls-1" d="M18.88,36.81H15.42a.49.49,0,0,1-.49-.49V32.86a.49.49,0,0,0-.49-.49h-3a.49.49,0,0,0-.49.49v3.46a.49.49,0,0,1-.49.49H7a.49.49,0,0,0-.49.5v3a.49.49,0,0,0,.49.49h3.46a.49.49,0,0,1,.49.49v3.46a.49.49,0,0,0,.49.49h3a.49.49,0,0,0,.49-.49V41.31a.49.49,0,0,1,.49-.49h3.46a.49.49,0,0,0,.49-.49v-3A.49.49,0,0,0,18.88,36.81Z"/><line class="cls-2" x1="23.64" y1="34.21" x2="32.09" y2="34.21"/><circle class="cls-1" cx="36.88" cy="38.69" r="2.8"/><circle class="cls-1" cx="47.95" cy="38.69" r="2.8"/><circle class="cls-1" cx="42.42" cy="33.15" r="2.8"/><circle class="cls-1" cx="42.42" cy="44.22" r="2.8"/><rect class="cls-3" x="20.95" y="25.56" width="14.15" height="4.79" rx="0.5"/><rect class="cls-3" x="24.9" y="20.53" width="6.26" height="5.03" rx="0.5"/><path class="cls-4" d="M42,25.51A13.17,13.17,0,1,1,29.83,43.8H26.17A13.16,13.16,0,1,1,14.05,25.51Z"/><path class="cls-2" d="M27.94,20.53s.66-4.85-2.49-4.85H14.17a2.57,2.57,0,0,1-2.28-2.86c0-2.11,2.45-2.5,2.45-2.5H21"/><path class="cls-2" d="M29,10.32h5.12c.9,0,2.8-.72,2.8-2.42V6.21a2,2,0,0,1,2-2H47"/><circle class="cls-4" cx="25.18" cy="10.32" r="0.79"/><rect class="cls-5" width="56" height="56"/></g></g></svg>