<svg xmlns="http://www.w3.org/2000/svg" viewBox="0 0 56 56"><defs><style>.cls-1{fill:#ed1859;stroke-miterlimit:10;}.cls-1,.cls-2{stroke:#000;stroke-width:1.5px;}.cls-2,.cls-3{fill:none;}.cls-2{stroke-linecap:round;stroke-linejoin:round;}</style></defs><title>Asset 21</title><g id="Layer_2" data-name="Layer 2"><g id="Layer_1-2" data-name="Layer 1"><circle class="cls-1" cx="37.11" cy="16.14" r="3.83"/><circle class="cls-1" cx="43.5" cy="28.04" r="3.41"/><circle class="cls-1" cx="37.91" cy="38.15" r="2.75"/><circle class="cls-1" cx="28.25" cy="44.1" r="3.33"/><path class="cls-2" d="M10.87,34.18S3.42,44.89,3.42,51.84c0,0,3.92.26,19-27.77"/><polyline class="cls-2" points="17.81 21.41 14.63 26.65 19.39 29.55"/><path class="cls-2" d="M29.16,17.33c.32,3.19-2.84,6.74-6,6.74a5.8,5.8,0,0,1-5.79-5.8,8.63,8.63,0,0,1,6.83-8.22C33.63,8.05,28,6.22,29.16,17.33Z"/><circle class="cls-2" cx="12.95" cy="30.42" r="0.34"/><circle class="cls-2" cx="40.64" cy="6.86" r="0.34"/><path class="cls-2" d="M20.81,27s1.92,4.73.53,8.1-3.58,6.69-2.74,9.78a11,11,0,0,0,6.67,7.46c6.43,2.29,14.4-1.58,19.1-5.84A24.74,24.74,0,0,0,52.2,23.67,25.37,25.37,0,0,0,46.6,12C45.83,11,45,10.1,44.18,9.23l-.68-.69"/><path class="cls-2" d="M18.6,14s.82,3.59,4.21,3.69,4.65-3.13,6.19-3.19"/><path class="cls-2" d="M37.59,5.29A22,22,0,0,0,17,5.84c-9.94,5.82-.42,11.82.8,15.57"/><rect class="cls-3" width="56" height="56"/></g></g></svg>