<svg xmlns="http://www.w3.org/2000/svg" viewBox="0 0 56 56"><defs><style>.cls-1{fill:#154b9c;}.cls-1,.cls-2,.cls-3{stroke:#000;stroke-miterlimit:10;stroke-width:1.5px;}.cls-2,.cls-3,.cls-4{fill:none;}.cls-3{stroke-linecap:round;}</style></defs><title>Asset 25</title><g id="Layer_2" data-name="Layer 2"><g id="Layer_1-2" data-name="Layer 1"><rect class="cls-1" x="14.8" y="3" width="26.2" height="8.73" rx="3"/><path class="cls-2" d="M46.54,33.91V17a.39.39,0,0,0-.4-.4H9.86a.39.39,0,0,0-.4.4V33.91"/><rect class="cls-1" x="14.8" y="20.46" width="26.2" height="8.73" rx="3"/><rect class="cls-1" x="14.8" y="11.73" width="26.2" height="8.73" rx="3"/><line class="cls-3" x1="37.33" y1="7.36" x2="22.63" y2="7.36"/><line class="cls-3" x1="18.47" y1="7.37" x2="18.47" y2="7.36"/><line class="cls-3" x1="37.33" y1="16.09" x2="22.63" y2="16.09"/><line class="cls-3" x1="18.47" y1="16.1" x2="18.47" y2="16.09"/><line class="cls-3" x1="37.33" y1="24.82" x2="22.63" y2="24.82"/><line class="cls-3" x1="18.47" y1="24.83" x2="18.47" y2="24.82"/><rect class="cls-2" x="3.67" y="34.24" width="21.17" height="15.35" rx="3"/><line class="cls-3" x1="3.67" y1="46.41" x2="10.37" y2="46.41"/><line class="cls-3" x1="18.15" y1="46.41" x2="24.85" y2="46.41"/><line class="cls-3" x1="8.13" y1="53" x2="20.38" y2="53"/><line class="cls-3" x1="14.25" y1="46.41" x2="14.25" y2="46.41"/><line class="cls-3" x1="11.86" y1="49.59" x2="11.09" y2="53"/><line class="cls-3" x1="16.65" y1="49.59" x2="17.42" y2="53"/><rect class="cls-2" x="31.15" y="34.24" width="21.17" height="15.35" rx="3"/><line class="cls-3" x1="31.15" y1="46.41" x2="37.85" y2="46.41"/><line class="cls-3" x1="45.63" y1="46.41" x2="52.33" y2="46.41"/><line class="cls-3" x1="35.61" y1="53" x2="47.86" y2="53"/><line class="cls-3" x1="41.73" y1="46.41" x2="41.73" y2="46.41"/><line class="cls-3" x1="39.34" y1="49.59" x2="38.57" y2="53"/><line class="cls-3" x1="44.13" y1="49.59" x2="44.9" y2="53"/><rect class="cls-4" width="56" height="56"/></g></g></svg>