<svg xmlns="http://www.w3.org/2000/svg" viewBox="0 0 56 56"><defs><style>.cls-1,.cls-3{fill:none;}.cls-1,.cls-2{stroke:#000;stroke-miterlimit:10;stroke-width:1.5px;}.cls-1{stroke-linecap:round;}.cls-2{fill:#39a4dc;}</style></defs><title>Asset 26</title><g id="Layer_2" data-name="Layer 2"><g id="Layer_1-2" data-name="Layer 1"><line class="cls-1" x1="30.4" y1="50.63" x2="38.06" y2="50.63"/><line class="cls-1" x1="17.94" y1="50.63" x2="25.2" y2="50.63"/><line class="cls-1" x1="28" y1="43.82" x2="28" y2="48.26"/><circle class="cls-1" cx="28.03" cy="50.63" r="2.37"/><ellipse class="cls-2" cx="28.01" cy="21.51" rx="10.14" ry="18.51"/><circle class="cls-1" cx="28" cy="21.51" r="18.51"/><line class="cls-1" x1="28" y1="24.31" x2="28" y2="3"/><line class="cls-1" x1="28" y1="31.42" x2="28" y2="40.02"/><path class="cls-1" d="M13.83,33a10.14,10.14,0,0,1,5.72-1.59c3.71-.05,16.27,0,17.71,0,2.06,0,5.08,1.8,5.08,1.8"/><path class="cls-1" d="M13.83,10.69a10.19,10.19,0,0,0,5.72,1.6c3.71.05,16.27,0,17.71,0,2.06,0,5.08-1.81,5.08-1.81"/><line class="cls-1" x1="9.49" y1="21.8" x2="46.51" y2="21.8"/><line class="cls-1" x1="28" y1="27.73" x2="28" y2="27.72"/><rect class="cls-3" width="56" height="56"/></g></g></svg>