<svg xmlns="http://www.w3.org/2000/svg" viewBox="0 0 56 56"><defs><style>.cls-1,.cls-2,.cls-4{fill:none;}.cls-1,.cls-2,.cls-3{stroke:#000;stroke-miterlimit:10;stroke-width:1.5px;}.cls-2{stroke-linecap:round;}.cls-3{fill:#77c044;}</style></defs><title>Asset 19</title><g id="Layer_2" data-name="Layer 2"><g id="Layer_1-2" data-name="Layer 1"><rect class="cls-1" x="0.93" y="31.75" width="23.17" height="16.8" rx="3"/><line class="cls-2" x1="0.93" y1="45.07" x2="24.1" y2="45.07"/><line class="cls-2" x1="5.81" y1="52.28" x2="19.22" y2="52.28"/><line class="cls-2" x1="9.9" y1="48.54" x2="9.05" y2="52.28"/><line class="cls-2" x1="15.14" y1="48.54" x2="15.98" y2="52.28"/><rect class="cls-1" x="31.9" y="31.75" width="23.17" height="16.8" rx="3"/><line class="cls-2" x1="31.9" y1="45.07" x2="55.07" y2="45.07"/><line class="cls-2" x1="36.78" y1="52.28" x2="50.19" y2="52.28"/><line class="cls-2" x1="40.86" y1="48.54" x2="40.02" y2="52.28"/><line class="cls-2" x1="46.1" y1="48.54" x2="46.95" y2="52.28"/><rect class="cls-3" x="15.25" y="3.72" width="25.49" height="18.48" rx="3"/><line class="cls-2" x1="15.25" y1="18.37" x2="23.31" y2="18.37"/><line class="cls-2" x1="32.69" y1="18.37" x2="40.75" y2="18.37"/><line class="cls-2" x1="20.62" y1="26.3" x2="35.37" y2="26.3"/><line class="cls-2" x1="27.99" y1="18.38" x2="27.99" y2="18.37"/><line class="cls-2" x1="25.11" y1="22.2" x2="24.18" y2="26.3"/><line class="cls-2" x1="30.88" y1="22.2" x2="31.8" y2="26.3"/><path class="cls-2" d="M11.47,31.42a17.36,17.36,0,0,1-.94-5.66c0-4.21,1.8-9.18,4.72-11.93"/><path class="cls-2" d="M31.76,42.82a17.92,17.92,0,0,1-7.53,0"/><path class="cls-2" d="M40.75,13.83a17.43,17.43,0,0,1,3.73,17.72"/><rect class="cls-4" width="56" height="56"/></g></g></svg>