<svg xmlns="http://www.w3.org/2000/svg" viewBox="0 0 56 56"><defs><style>.cls-1,.cls-3{fill:none;}.cls-1,.cls-2{stroke:#000;stroke-linecap:round;stroke-miterlimit:10;stroke-width:1.5px;}.cls-2{fill:#5e6bb2;}</style></defs><title>qa</title><g id="Layer_2" data-name="Layer 2"><g id="Layer_1-2" data-name="Layer 1"><rect class="cls-1" x="2.69" y="10.71" width="50.63" height="33.91" rx="3"/><path class="cls-1" d="M8.33,28.78v6.3a2.46,2.46,0,0,0,2.46,2.46H44.62a2.46,2.46,0,0,0,2.46-2.46V5.46A2.46,2.46,0,0,0,44.62,3H10.79A2.46,2.46,0,0,0,8.33,5.46V19.87"/><line class="cls-1" x1="8.33" y1="23.92" x2="8.33" y2="23.92"/><line class="cls-1" x1="2.69" y1="37.54" x2="53.31" y2="37.54"/><rect class="cls-1" x="23.71" y="44.62" width="8.58" height="3.96"/><path class="cls-1" d="M21.29,48.9H34.71a2.5,2.5,0,0,1,2.5,2.5v1.1a.5.5,0,0,1-.5.5H19.29a.5.5,0,0,1-.5-.5V51.4A2.5,2.5,0,0,1,21.29,48.9Z"/><path class="cls-2" d="M24.58,37.48a4,4,0,1,1,6.81.06h9.33a.21.21,0,0,0,.21-.17,13.43,13.43,0,0,0,.15-2A13.22,13.22,0,0,0,41,33.93a1.19,1.19,0,0,0-1-1.07l-.77-.11a1.21,1.21,0,0,1-.95-.83,10.56,10.56,0,0,0-.58-1.38A1.17,1.17,0,0,1,38,29.18l.21-.2a1.2,1.2,0,0,0,.16-1.64,12.74,12.74,0,0,0-2-2,1.19,1.19,0,0,0-1.49-.05l-.58.44a1.14,1.14,0,0,1-1.24.09,9.48,9.48,0,0,0-1.38-.61,1.2,1.2,0,0,1-.81-1l-.08-.74a1.2,1.2,0,0,0-1-1.05A14.59,14.59,0,0,0,28,22.28a13,13,0,0,0-1.4.07,1.19,1.19,0,0,0-1.07,1.16v.42a1.22,1.22,0,0,1-.82,1.18,13.07,13.07,0,0,0-1.79.71,1.2,1.2,0,0,1-1.47-.31l-.06-.08a1.19,1.19,0,0,0-1.68-.18,13,13,0,0,0-1.63,1.6,1.19,1.19,0,0,0,.18,1.71,1.16,1.16,0,0,1,.31,1.49,10.1,10.1,0,0,0-.6,1.24,10.36,10.36,0,0,0-.38,1.11,1.18,1.18,0,0,1-1.18.85h-.2A1.18,1.18,0,0,0,15,34.32c0,.34,0,.69,0,1a13.73,13.73,0,0,0,.16,2,.18.18,0,0,0,.17.14Z"/><rect class="cls-3" width="56" height="56"/></g></g></svg>