<svg xmlns="http://www.w3.org/2000/svg" viewBox="0 0 50 70.75"><defs><style>.cls-1{fill:#8d2ca8;}</style></defs><g id="Layer_2" data-name="Layer 2"><g id="Layer_1-2" data-name="Layer 1"><rect class="cls-1" x="9" y="67.72" width="32" height="3.03" rx="1.51"/><rect class="cls-1" x="1.5" y="30.72" width="47" height="8"/><path d="M5.86,6H7.6v5.86h3.2v1.39H5.86Z"/><path d="M11.73,6h1.74v7.25H11.73Z"/><path d="M14.21,6h1.87l1.75,5.16L19.56,6h1.87l-2.69,7.25H16.9Z"/><path d="M27.22,11.82v1.39H22.16V6h5V7.35H23.9V8.78h2.81v1.3H23.9v1.74Z"/><g id="Computer"><path d="M45.83,0H4.17A4.17,4.17,0,0,0,0,4.17V35.83A4.17,4.17,0,0,0,4.17,40H18l-1.87,5H14.17a2.5,2.5,0,0,0-2.5,2.5v1.67a.83.83,0,0,0,.83.83h25a.83.83,0,0,0,.83-.83V47.5a2.5,2.5,0,0,0-2.5-2.5H33.91L32,40H45.83A4.17,4.17,0,0,0,50,35.83V4.17A4.17,4.17,0,0,0,45.83,0ZM4.17,1.67H45.83a2.5,2.5,0,0,1,2.5,2.5V30H1.67V4.17A2.5,2.5,0,0,1,4.17,1.67ZM36.67,47.5v.83H13.33V47.5a.84.84,0,0,1,.84-.83H35.83A.84.84,0,0,1,36.67,47.5ZM32.13,45H17.87l1.87-5H30.26Zm13.7-6.67H4.17a2.5,2.5,0,0,1-2.5-2.5V31.67H48.33v4.16A2.5,2.5,0,0,1,45.83,38.33Z"/><path d="M25,32.5A2.5,2.5,0,1,0,27.5,35,2.5,2.5,0,0,0,25,32.5Zm0,3.33a.83.83,0,1,1,.83-.83A.83.83,0,0,1,25,35.83Z"/></g></g></g></svg>