<svg xmlns="http://www.w3.org/2000/svg" viewBox="0 0 63.73 81.7"><defs><style>.cls-1{fill:#8e24aa;}.cls-2,.cls-3{fill:none;stroke:#000;stroke-linecap:round;stroke-linejoin:round;}.cls-2{stroke-width:2px;}.cls-3{stroke-width:2.09px;}</style></defs><title>Asset 9</title><g id="Layer_2" data-name="Layer 2"><g id="Layer_1-2" data-name="Layer 1"><polygon class="cls-1" points="40.23 27.7 34 38.17 38.59 37.79 40.23 43.05 47.76 32.31 54.75 42.36 56.67 37.81 60.75 38.65 55.29 27.25 40.23 27.7"/><circle class="cls-1" cx="47.76" cy="22.76" r="7.53"/><path class="cls-1" d="M49.94,81.7H13.61a1.83,1.83,0,0,1,0-3.66H49.94a1.83,1.83,0,1,1,0,3.66"/><circle class="cls-2" cx="5.8" cy="18.81" r="0.88"/><circle class="cls-2" cx="26.98" cy="52.59" r="0.88"/><line class="cls-2" x1="12.3" y1="28.94" x2="33.04" y2="28.94"/><line class="cls-2" x1="12.3" y1="35.69" x2="24.88" y2="35.69"/><line class="cls-2" x1="12.3" y1="41.81" x2="24.88" y2="41.81"/><line class="cls-2" x1="12.36" y1="15.76" x2="20.53" y2="15.76"/><line class="cls-2" x1="31.79" y1="52.59" x2="40.23" y2="52.59"/><line class="cls-2" x1="5.8" y1="8.86" x2="5.8" y2="13.79"/><path class="cls-2" d="M5.8,23.7V56.29a6.83,6.83,0,0,0,1.75,4.44c2.42,2.41,4.18,2.44,4.18,2.44H54.81s6.56-.7,6.56-6.88H47.76"/><path class="cls-2" d="M40.23,1.05H7.05A5.89,5.89,0,0,0,1.13,8.29H33.57"/><line class="cls-2" x1="47.76" y1="7.26" x2="47.76" y2="13.63"/><line class="cls-2" x1="47.76" y1="33.07" x2="47.76" y2="56.29"/><path class="cls-3" d="M33.57,8A7.1,7.1,0,0,1,47.76,8"/><circle class="cls-2" cx="47.76" cy="22.76" r="8.2"/><polyline class="cls-2" points="40.23 26.77 32.88 39.59 38.99 37.78 40.53 43.73 47.76 30.96"/><polyline class="cls-2" points="55.39 26.91 62.73 39.73 56.62 37.92 55.08 43.87 47.85 31.11"/><path class="cls-2" d="M47.76,56.56s.74,6.61,7.05,6.61"/></g></g></svg>