<svg xmlns="http://www.w3.org/2000/svg" viewBox="0 0 63.41 75.18"><defs><style>.cls-1{fill:#8e24aa;}.cls-2,.cls-3{fill:none;stroke:#000;stroke-width:2px;}.cls-2{stroke-linecap:round;stroke-linejoin:round;}.cls-3{stroke-miterlimit:10;}</style></defs><title>Asset 8</title><g id="Layer_2" data-name="Layer 2"><g id="Layer_1-2" data-name="Layer 1"><g id="hands"><path class="cls-1" d="M50.13,75.18H13.8a1.83,1.83,0,1,1,0-3.66H50.13a1.83,1.83,0,1,1,0,3.66"/><polygon class="cls-1" points="14.25 27.46 9.27 30.12 7.52 32.86 8.8 35.8 12.09 36.52 11.76 39.48 14.38 41.26 17.58 41.26 17.58 43.67 19.66 46.16 21.89 46.16 21.89 48.74 25.18 51.23 28.84 49.96 31.21 45.5 29.38 42.53 26.79 42.53 25.97 39.35 23.98 36.87 21.57 37.05 20.9 33.58 18.99 31.79 16.58 32.86 16.41 29.23 14.25 27.46"/><path class="cls-1" d="M52,2.33s2.24.6,5.62,3.91c3.09,3,2.43,3,3.71,5.25l.55,8.91-2.16,7.66L55,34.29l-4.65-5.12L37.74,17.73l-4.35-.47L28.84,21l-3.3,1.18-3.21-1.71-.44-2.65,1.61-3.89,10.35-9.3,5.43-3L46.16.89Z"/><circle class="cls-2" cx="57.06" cy="6.12" r="0.88"/><path class="cls-2" d="M45.74,12.28,42.32,15.7s-1.22,1.68-9.48,1.48l-3.71,3.59a4.26,4.26,0,0,1-5.26.68,4.24,4.24,0,0,1-.51-6.38l8.91-9A18.78,18.78,0,0,1,53.46,3.25"/><path class="cls-2" d="M60,9s8,12.14-5.44,25.61"/><line class="cls-2" x1="37.58" y1="17.22" x2="53" y2="32.61"/><path class="cls-2" d="M31.38,5.67S19.74-5,7,5.89c0,0-13,11.1-.62,26.08"/><rect class="cls-3" x="6.8" y="28.75" width="10.49" height="6.53" rx="3.27" ry="3.27" transform="translate(-19.11 17.9) rotate(-45)"/><rect class="cls-3" x="11.74" y="33.7" width="10.49" height="6.53" rx="3.27" ry="3.27" transform="translate(-21.16 22.84) rotate(-45)"/><rect class="cls-3" x="16.48" y="38.43" width="10.49" height="6.53" rx="3.27" ry="3.27" transform="translate(-23.12 27.58) rotate(-45)"/><rect class="cls-3" x="21.45" y="43.4" width="10.49" height="6.53" rx="3.27" ry="3.27" transform="translate(-25.18 32.55) rotate(-45)"/><line class="cls-2" x1="31.7" y1="39.05" x2="38.95" y2="46.3"/><path class="cls-3" d="M30.69,47.3l3.79,3.79a3.28,3.28,0,0,0,4.62,0h0a3.28,3.28,0,0,0,0-4.62l-2.8-2.8"/><line class="cls-2" x1="33.28" y1="31.38" x2="43.5" y2="41.6"/><path class="cls-3" d="M35.24,42.59,39,46.38a3.28,3.28,0,0,0,4.62,0h0a3.27,3.27,0,0,0,0-4.61L40.84,39"/><line class="cls-2" x1="38.19" y1="27.04" x2="48.41" y2="37.26"/><path class="cls-3" d="M40.15,38.25l3.79,3.8a3.28,3.28,0,0,0,4.62,0h0a3.28,3.28,0,0,0,0-4.62l-2.81-2.8"/><path class="cls-3" d="M44.59,33.44l3.79,3.79a3.28,3.28,0,0,0,4.62,0h0a3.28,3.28,0,0,0,0-4.62"/></g></g></g></svg>