<svg xmlns="http://www.w3.org/2000/svg" viewBox="0 0 63.95 81.14"><defs><style>.cls-1{fill:#8e24aa;}.cls-2{fill:none;stroke:#000;stroke-linecap:round;stroke-linejoin:round;stroke-width:2px;}</style></defs><title>Asset 7</title><g id="Layer_2" data-name="Layer 2"><g id="Layer_1-2" data-name="Layer 1"><polygon class="cls-1" points="14.91 14.74 18.78 9.86 46.02 10.44 47.89 13.83 48.3 21.49 45.27 25.92 19.51 25.82 15.73 22.5 14.91 14.74"/><path class="cls-1" d="M49.94,81.14H13.6a1.84,1.84,0,0,1,0-3.67H49.94a1.84,1.84,0,0,1,0,3.67"/><path class="cls-2" d="M9.27,25.24v14l10.71,9H43.52L54.2,39.58V8a7,7,0,0,0-7-7H16.27a7,7,0,0,0-7,7v5.53"/><circle class="cls-2" cx="9.27" cy="19.07" r="0.88"/><circle class="cls-2" cx="48.02" cy="57.41" r="0.88"/><circle class="cls-2" cx="18.23" cy="34.78" r="3.87"/><circle class="cls-2" cx="45.27" cy="34.78" r="3.87"/><line class="cls-2" x1="25.14" y1="31.8" x2="38.33" y2="31.8"/><line class="cls-2" x1="25.14" y1="37.68" x2="38.33" y2="37.68"/><line class="cls-2" x1="11.83" y1="41.4" x2="1" y2="62.13"/><line class="cls-2" x1="15.47" y1="45.41" x2="6.41" y2="62.75"/><line class="cls-2" x1="52.12" y1="41.4" x2="62.95" y2="62.13"/><line class="cls-2" x1="48.3" y1="45.08" x2="57.54" y2="62.75"/><line class="cls-2" x1="11.55" y1="52.92" x2="52.24" y2="52.92"/><line class="cls-2" x1="9.27" y1="57.41" x2="43.06" y2="57.41"/><rect class="cls-2" x="15.47" y="9.55" width="32.52" height="16.36" rx="5" ry="5"/><line class="cls-2" x1="31.73" y1="9.55" x2="31.73" y2="25.92"/></g></g></svg>