<svg xmlns="http://www.w3.org/2000/svg" viewBox="0 0 67.84 72.61"><defs><style>.cls-1{fill:#8e24aa;}.cls-2,.cls-3,.cls-4{fill:none;stroke:#000;stroke-linecap:round;stroke-linejoin:round;}.cls-2{stroke-width:2px;}.cls-3{stroke-width:1.35px;}.cls-4{stroke-width:1.21px;}</style></defs><title>Asset 11</title><g id="Layer_2" data-name="Layer 2"><g id="Layer_1-2" data-name="Layer 1"><polygon class="cls-1" points="16.93 47.12 33.97 47.12 51.01 47.12 50.88 39.13 50.6 36.65 47.65 34.81 41.75 32.23 39.76 30.15 33.76 33.75 28.46 30.15 26.61 31.63 24.12 33.61 19.18 35.32 17.37 36.84 16.6 44.22 16.93 47.12"/><path class="cls-1" d="M52.13,72.61H15.79a1.83,1.83,0,1,1,0-3.66H52.13a1.83,1.83,0,1,1,0,3.66"/><line class="cls-2" x1="33.96" y1="34.83" x2="33.96" y2="46.12"/><polyline class="cls-2" points="27.83 26.44 27.83 29.66 33.76 33.75"/><polyline class="cls-2" points="39.91 26.44 39.91 29.66 33.98 33.75"/><line class="cls-2" x1="26.01" y1="32.11" x2="27.9" y2="30.22"/><line class="cls-2" x1="42.14" y1="32.23" x2="40.03" y2="30.12"/><line class="cls-2" x1="37.86" y1="37.73" x2="34.23" y2="34.09"/><line class="cls-2" x1="42.14" y1="32.23" x2="37.86" y2="37.73"/><line class="cls-2" x1="30.13" y1="37.73" x2="33.76" y2="34.09"/><line class="cls-2" x1="26.01" y1="32.11" x2="30.13" y2="37.73"/><path class="cls-2" d="M16.89,46.12V38.63S16.64,36.2,20.17,35l5.89-2"/><path class="cls-2" d="M51,46.12V38.63s.25-2.43-3.28-3.65l-5.88-2"/><path class="cls-2" d="M45,1H30.38s-9.2.83-7.26,12.42l1,2.24v2.6s.27,9.9,9.8,9.9,10.14-9,10.14-12.3a9.17,9.17,0,0,0,.93-4.6V1.07"/><line class="cls-3" x1="55.46" y1="38.14" x2="55.46" y2="46.48"/><polyline class="cls-3" points="51.33 33.53 51.33 35.38 55.33 38.14"/><polyline class="cls-3" points="59.48 33.2 59.48 35.38 55.48 38.14"/><line class="cls-3" x1="50.35" y1="36.77" x2="51.37" y2="35.75"/><line class="cls-3" x1="60.98" y1="37.11" x2="59.56" y2="35.69"/><path class="cls-3" d="M67.16,47.12V40.93s.17-1.64-2.21-2.47l-4-1.35"/><path class="cls-3" d="M62.9,16H53s-6.2.57-4.89,8.38l.67,1.51v1.76s.19,6.67,6.61,6.67,6.85-6.05,6.85-8.29A6.28,6.28,0,0,0,62.9,23V16.09"/><line class="cls-3" x1="16.06" y1="35.06" x2="12.51" y2="37.5"/><line class="cls-3" x1="8.37" y1="34.75" x2="12.37" y2="37.5"/><line class="cls-3" x1="17.74" y1="36.39" x2="15.94" y2="34.61"/><line class="cls-3" x1="6.86" y1="36.47" x2="8.28" y2="35.05"/><path class="cls-3" d="M.68,46.48V40.29s-.17-1.64,2.21-2.46l4-1.36"/><path class="cls-4" d="M18.55,26.11c0,1.48-.67,6.78-6,6.78-5.78,0-7.23-5.25-7.23-7.45"/><path class="cls-3" d="M8,24.13,9.75,22s4.26-.39,9.12,4.42"/><path class="cls-3" d="M8.71,34.31a11.6,11.6,0,0,1-4.94-3.05A37.8,37.8,0,0,0,5.57,20c0-6.47,13-6.56,13,.9s1.72,10.41,1.72,10.41a15.91,15.91,0,0,1-3.78,2.31"/><path class="cls-3" d="M9.37,34.92a3.84,3.84,0,0,0,.17-2.51"/><path class="cls-3" d="M15.94,34.61a3.84,3.84,0,0,1-.17-2.51"/></g></g></svg>