<svg xmlns="http://www.w3.org/2000/svg" viewBox="0 0 64.36 81.58"><defs><style>.cls-1{fill:#8e24aa;}.cls-2,.cls-3,.cls-4{fill:none;stroke:#000;stroke-linecap:round;stroke-linejoin:round;}.cls-2{stroke-width:2px;}.cls-3{stroke-width:1.77px;}.cls-4{stroke-width:2.27px;}</style></defs><title>Asset 10</title><g id="Layer_2" data-name="Layer 2"><g id="Layer_1-2" data-name="Layer 1"><polygon class="cls-1" points="21.68 42.13 15.69 41.09 8.68 48.6 12.18 50.21 13.94 50.21 15.18 55.73 23.53 48.02 21.68 42.13"/><polygon class="cls-1" points="61.62 2.43 50.66 6.91 57.33 14.12 61.62 2.43"/><path class="cls-1" d="M50.48,81.58H14.15a1.83,1.83,0,1,1,0-3.66H50.48a1.83,1.83,0,1,1,0,3.66"/><rect class="cls-1" x="38.13" y="13.45" width="7.83" height="18.09" rx="2.34" ry="2.34" transform="translate(-3.59 36.32) rotate(-45)"/><line class="cls-2" x1="8.25" y1="7.66" x2="21.17" y2="20.57"/><line class="cls-2" x1="26.46" y1="25.87" x2="56.78" y2="56.19"/><line class="cls-2" x1="53.46" y1="10.9" x2="45.22" y2="19.14"/><circle class="cls-2" cx="23.81" cy="23.21" r="0.88"/><line class="cls-2" x1="13.85" y1="50.52" x2="38.81" y2="25.55"/><rect class="cls-3" x="32.97" y="18.54" width="18.7" height="8.21" rx="4.11" ry="4.11" transform="translate(28.41 -23.29) rotate(45)"/><path class="cls-2" d="M47.53,30.44l6.87,6.87s1,.81.54,5-.24,11.78,3.92,17.6c1.07,1.5,4.65,4.76,4.5,2.92C63,57.89,58,60,59.19,39.4a5,5,0,0,0-1.68-4.77l-7.07-7.07"/><path class="cls-2" d="M37.59,14.68,29.76,6.85A5.08,5.08,0,0,0,25,5.17C4.39,6.4,6.5,1.42,1.55,1-.29.85,3,4.43,4.47,5.51c5.82,4.15,13.43,4.35,17.6,3.91s5.21.74,5.21.74l7.31,7.31"/><polygon class="cls-4" points="57.45 13.65 54.05 10.16 50.65 6.67 56.25 4.62 61.85 2.56 59.65 8.11 57.45 13.65"/><path class="cls-2" d="M13.85,50.52,8.68,49.17l7.26-7.26a14.84,14.84,0,0,1,6,0"/><path class="cls-2" d="M14.15,50.9l1.35,5.17,7.26-7.27a15,15,0,0,0,0-5.94"/></g></g></svg>