<svg xmlns="http://www.w3.org/2000/svg" viewBox="0 0 30 30"><defs><style>.cls-1{fill:#263238;}</style></defs><title>arrow</title><g id="Layer_2" data-name="Layer 2"><g id="Layer_1-2" data-name="Layer 1"><path class="cls-1" d="M15,30A15,15,0,1,1,30,15,15,15,0,0,1,15,30ZM25,13.75a1.26,1.26,0,0,0-1.25-1.25H14l3.69-3.69a1.23,1.23,0,0,0,0-1.76L15.86,5.27A1.24,1.24,0,0,0,15,4.92a1.26,1.26,0,0,0-.88.35L7,12.34,5.25,14.12a1.28,1.28,0,0,0,0,1.76L7,17.66l7.07,7.07a1.26,1.26,0,0,0,.88.35,1.24,1.24,0,0,0,.88-.35L17.64,23a1.28,1.28,0,0,0,0-1.76L14,17.5h9.8A1.26,1.26,0,0,0,25,16.25Z"/></g></g></svg>