<svg xmlns="http://www.w3.org/2000/svg" width="70" height="70" viewBox="0 0 70 70">
  <g id="Group_43" data-name="Group 43" transform="translate(-846 -591)">
    <path id="Path_47" data-name="Path 47" d="M863.4,608.4l-5.6.8-2.8,3.2-1.2,5.4,1.2,1.8s.8-.4,2.8,1.2,1,4.2,3.6,5,5.2-1,6.6,1,1.4,5,2.6,5h4V616.6l-4-1.6-5-6.6Z" fill="#2f5faa"/>
    <path id="Path_48" data-name="Path 48" d="M892.2,592.2v4h-5v4.2h23v-4.2h-4v-4Z" fill="#2f5faa"/>
    <g id="enterprise" transform="translate(845 590)">
      <path id="Path_25" data-name="Path 25" d="M68.742,68.742V51.806a1.129,1.129,0,0,0-1.129-1.129H66.484V6.645a1.129,1.129,0,0,0-1.129-1.129H61.968V2.129A1.129,1.129,0,0,0,60.839,1H47.29a1.129,1.129,0,0,0-1.129,1.129V5.516H42.774a1.129,1.129,0,0,0-1.129,1.129V25.839h-7.9a1.129,1.129,0,0,0-1.129,1.129V47.29H30.355V25.839a1.129,1.129,0,0,0-1.129-1.129H25.768a9.044,9.044,0,0,0-7.832-7.824v-4.6H15.677v4.6A9.046,9.046,0,0,0,7.844,24.71H4.387a1.129,1.129,0,0,0-1.129,1.129v42.9H1V71H71V68.742ZM50.677,12.29V25.839H48.419V12.29Zm2.258,14.677V12.29h2.258V50.677H52.935Zm4.516,23.71V12.29H59.71V50.677Zm9.032,2.258V68.742H47.29V52.935Zm-4.516-2.258V12.29h2.258V50.677ZM47.29,7.774a1.129,1.129,0,0,0,1.129-1.129V3.258H59.71V6.645a1.129,1.129,0,0,0,1.129,1.129h3.387v2.258H43.9V7.774ZM43.9,12.29h2.258V25.839H43.9ZM34.871,28.1H50.677V50.677H46.161a1.129,1.129,0,0,0-1.129,1.129V68.742H40.516V48.419a1.129,1.129,0,0,0-1.129-1.129H34.871Zm3.387,40.645H20.194V49.548H38.258ZM16.806,19.065a6.781,6.781,0,0,1,6.774,6.774,1.129,1.129,0,0,0,1.129,1.129H28.1V40.516H26.4a1.7,1.7,0,0,1-1.694-1.694,3.956,3.956,0,0,0-3.952-3.952H17.371a1.7,1.7,0,0,1-1.694-1.694,3.956,3.956,0,0,0-3.952-3.952,1.7,1.7,0,0,1-1.694-1.694V25.839A6.781,6.781,0,0,1,16.806,19.065Zm-11.29,7.9H7.774v.565a3.956,3.956,0,0,0,3.952,3.952,1.7,1.7,0,0,1,1.694,1.694,3.956,3.956,0,0,0,3.952,3.952h3.387a1.69,1.69,0,0,1,1.59,1.129H19.065a1.129,1.129,0,0,0-1.129,1.129V43.9a1.129,1.129,0,0,0,1.129,1.129h4.516A1.129,1.129,0,0,0,24.71,43.9V42.378a3.912,3.912,0,0,0,1.694.4H28.1V47.29H19.065a1.129,1.129,0,0,0-1.129,1.129V68.742H5.516ZM22.452,40.516v2.258H20.194V40.516Z"/>
      <path id="Path_26" data-name="Path 26" d="M13.645,34H9.129A1.129,1.129,0,0,0,8,35.129v4.516a1.129,1.129,0,0,0,1.129,1.129h4.516a1.129,1.129,0,0,0,1.129-1.129V35.129A1.129,1.129,0,0,0,13.645,34Zm-1.129,4.516H10.258V36.258h2.258Z" transform="translate(0.903 4.258)"/>
      <path id="Path_27" data-name="Path 27" d="M13.645,42H9.129A1.129,1.129,0,0,0,8,43.129v4.516a1.129,1.129,0,0,0,1.129,1.129h4.516a1.129,1.129,0,0,0,1.129-1.129V43.129A1.129,1.129,0,0,0,13.645,42Zm-1.129,4.516H10.258V44.258h2.258Z" transform="translate(0.903 5.29)"/>
      <path id="Path_28" data-name="Path 28" d="M13.645,50H9.129A1.129,1.129,0,0,0,8,51.129v4.516a1.129,1.129,0,0,0,1.129,1.129h4.516a1.129,1.129,0,0,0,1.129-1.129V51.129A1.129,1.129,0,0,0,13.645,50Zm-1.129,4.516H10.258V52.258h2.258Z" transform="translate(0.903 6.323)"/>
      <path id="Path_29" data-name="Path 29" d="M21,46h2.258v4.516H21Z" transform="translate(2.581 5.806)"/>
      <path id="Path_30" data-name="Path 30" d="M25,46h2.258v4.516H25Z" transform="translate(3.097 5.806)"/>
      <path id="Path_31" data-name="Path 31" d="M29,46h2.258v4.516H29Z" transform="translate(3.613 5.806)"/>
      <path id="Path_32" data-name="Path 32" d="M21,52h2.258v4.516H21Z" transform="translate(2.581 6.581)"/>
      <path id="Path_33" data-name="Path 33" d="M25,52h2.258v4.516H25Z" transform="translate(3.097 6.581)"/>
      <path id="Path_34" data-name="Path 34" d="M29,52h2.258v4.516H29Z" transform="translate(3.613 6.581)"/>
      <path id="Path_35" data-name="Path 35" d="M44,49H58.677v2.258H44Z" transform="translate(5.548 6.194)"/>
      <path id="Path_36" data-name="Path 36" d="M44,53H58.677v2.258H44Z" transform="translate(5.548 6.71)"/>
      <path id="Path_37" data-name="Path 37" d="M44,57H58.677v2.258H44Z" transform="translate(5.548 7.226)"/>
      <path id="Path_38" data-name="Path 38" d="M33,27H44.29v2.258H33Z" transform="translate(4.129 3.355)"/>
      <path id="Path_39" data-name="Path 39" d="M33,31H44.29v2.258H33Z" transform="translate(4.129 3.871)"/>
      <path id="Path_40" data-name="Path 40" d="M33,35H44.29v2.258H33Z" transform="translate(4.129 4.387)"/>
      <path id="Path_41" data-name="Path 41" d="M33,39H44.29v2.258H33Z" transform="translate(4.129 4.903)"/>
      <path id="Path_42" data-name="Path 42" d="M27.387,18.774A3.387,3.387,0,1,0,24,15.387,3.391,3.391,0,0,0,27.387,18.774Zm0-4.516a1.129,1.129,0,1,1-1.129,1.129A1.13,1.13,0,0,1,27.387,14.258Z" transform="translate(2.968 1.419)"/>
      <path id="Path_43" data-name="Path 43" d="M7.387,10.774A3.387,3.387,0,1,0,4,7.387,3.391,3.391,0,0,0,7.387,10.774Zm0-4.516A1.129,1.129,0,1,1,6.258,7.387,1.13,1.13,0,0,1,7.387,6.258Z" transform="translate(0.387 0.387)"/>
    </g>
  </g>
</svg>
