<svg xmlns="http://www.w3.org/2000/svg" width="58.369" height="70" viewBox="0 0 58.369 70">
  <g id="Group_42" data-name="Group 42" transform="translate(-1408 -588)">
    <path id="Path_46" data-name="Path 46" d="M1433.4,4467.6l-4.2,5.6.8,4,3.4,2h3.4l1,1.6v2l1.4,2.6v5.2l3.2,2,4.8-5,1.4-6.8,3-3.6-3-2-3.4-6.2h-2.8l-3.2,1.2-1.4-2.6-4.4-1.4v-3.8h7.4l7.8,3,3,7,5.2-3.4v-1.4h3.2v3.6l2,2,2.4-3-4.4-9.6-8.4-6.8-10.8-3.4-3,4.6-5.6,2s-3,6-2.2,5.4,2.2,3,2.2,3Z" transform="translate(0 -3861)" fill="#2f5faa"/>
    <g id="geography" transform="translate(1365.464 588)">
      <g id="Group_38" data-name="Group 38" transform="translate(42.536)">
        <g id="Group_37" data-name="Group 37">
          <path id="Path_44" data-name="Path 44" d="M95.683,46.965l-.043.042-2.421-2.421A26.091,26.091,0,1,0,56.366,7.64L53.923,5.2a1.367,1.367,0,0,0-1.937-1.93,32.275,32.275,0,0,0-3.678,41.242,1.367,1.367,0,0,0,2.243-1.564A29.473,29.473,0,0,1,52.078,7.22l2.455,2.455A26.089,26.089,0,0,0,91.181,46.413l2.433,2.433a29.55,29.55,0,0,1-35.364,1.7,1.367,1.367,0,1,0-1.535,2.263,32.078,32.078,0,0,0,16.72,5.51V61.8H68.512a6.844,6.844,0,0,0-6.836,6.836A1.367,1.367,0,0,0,63.043,70H86.559a1.367,1.367,0,0,0,1.367-1.367A6.844,6.844,0,0,0,81.09,61.8H76.168V58.316A32.254,32.254,0,0,0,97.616,48.9a1.367,1.367,0,0,0-1.933-1.934ZM74.411,6.327l2.768-3.472A23.429,23.429,0,0,1,97.29,19.74l-.326.291A3.036,3.036,0,0,0,96.24,21l-.274-.754a2.871,2.871,0,0,0-.517-.886l-1.234-1.445a2.876,2.876,0,0,0-2.19-1.009H90.515a1.816,1.816,0,0,0-1.54,2.78,10.749,10.749,0,0,1-2.65,1.574l-1.877-3.6v-.8a1.367,1.367,0,0,0-.423-.989L82.161,14.1a1.368,1.368,0,0,0-.491-.3l-5.414-1.9a1.369,1.369,0,0,0-.453-.077h-4.71a4.937,4.937,0,0,0-3.881,1.9l-1.076-1.508,1.33-3.225,6.328-2.218A1.369,1.369,0,0,0,74.411,6.327Zm6.817,28.832c.3.982.3.982-.108,1.431-.073.079-.14.151-.2.218A4.469,4.469,0,0,0,79.7,38.78a1.225,1.225,0,0,1-.333.5,4.776,4.776,0,0,0-.6.8,3.609,3.609,0,0,0-.406,1.177c-.056.279-.078.359-.134.428a4.675,4.675,0,0,1-1.66,1.29,9.508,9.508,0,0,1-.893-2.076c-.15-.446-.354-.9-.551-1.33a4.277,4.277,0,0,1-.638-2.312l.075-.228a4.733,4.733,0,0,0,.057-3.723,3.962,3.962,0,0,0-.8-1.144,2.906,2.906,0,0,1-.3-.364,2.118,2.118,0,0,1-.019-.4,2.838,2.838,0,0,0-.893-2.32,3.579,3.579,0,0,0-3.595-.594,6.029,6.029,0,0,1-.686.144,3.243,3.243,0,0,1-3.109-1.308,3.6,3.6,0,0,1-.277-3.64,7.35,7.35,0,0,1,1.239-1.674c.117-.132.236-.266.354-.4.208-.239.428-.552.661-.883a8.354,8.354,0,0,1,.9-1.141,6.957,6.957,0,0,1,2.057-.258c.293-.01.571-.02.826-.04a1.368,1.368,0,0,0,.722,1.2c.172.092.427.262.7.441a6.016,6.016,0,0,0,2.683,1.227,2.029,2.029,0,0,0,1.645-.676l.026-.027a1.437,1.437,0,0,0,.178-.178l.252.068a7.712,7.712,0,0,1,1.778.624,7.024,7.024,0,0,1,.986,1.977c.146.378.3.77.462,1.122.068.145.134.293.2.444A6.638,6.638,0,0,0,82.835,28.6a3.729,3.729,0,0,0,1.395.5c-.247.265-.533.531-.83.807C82.155,31.058,80.449,32.647,81.228,35.159Zm-21.89,4.11-.707,3.69a23.338,23.338,0,0,1-6.91-13.187l2.1-.681L57.8,32.116a1.367,1.367,0,0,0,.565.253l2.49.487a.748.748,0,0,1,.567.967,3.459,3.459,0,0,0,0,2.161l.317.977a.748.748,0,0,1-.48.942l-1,.323A1.367,1.367,0,0,0,59.338,39.269ZM74.8,49.473a23.243,23.243,0,0,1-13.772-4.5l.842-4.395L62.1,40.5a3.486,3.486,0,0,0,2.236-4.387l-.317-.977a.743.743,0,0,1,0-.464,3.482,3.482,0,0,0-2.641-4.5L59.2,29.747,54.9,26.481a1.368,1.368,0,0,0-1.25-.212l-2.2.716c-.011-.293-.018-.586-.018-.881A23.4,23.4,0,0,1,73.758,2.759l-1.24,1.555L65.984,6.605a1.368,1.368,0,0,0-.812.769L63.32,11.865a1.368,1.368,0,0,0,.151,1.316l2.858,4a1.377,1.377,0,0,0,.161.183,7.642,7.642,0,0,0-1.529,1.782c-.184.261-.374.53-.491.665s-.223.254-.333.378a9.659,9.659,0,0,0-1.668,2.322,6.335,6.335,0,0,0,.529,6.4,5.983,5.983,0,0,0,5.648,2.428,8.228,8.228,0,0,0,1.023-.205c.788-.195.936-.189,1.069-.064l.022.022c.007.062.006.188.006.283a4.26,4.26,0,0,0,.1,1.081,3.514,3.514,0,0,0,.931,1.542,2.767,2.767,0,0,1,.3.358c.249.6.172.89-.132,1.817l-.078.24c-.5,1.537.2,3.059.751,4.283.177.39.344.758.45,1.072.945,2.805,1.7,3.469,2.313,3.747a2.488,2.488,0,0,0,1.042.225c1.985,0,3.821-2.221,3.911-2.332a3.445,3.445,0,0,0,.695-1.617,1.733,1.733,0,0,1,.086-.335,2.326,2.326,0,0,1,.286-.364,3.843,3.843,0,0,0,.894-1.493,1.849,1.849,0,0,1,.6-.927c.07-.074.144-.153.224-.24a3.548,3.548,0,0,0,.707-4.091c-.235-.758.111-1.228,1.424-2.45a11.094,11.094,0,0,0,1.642-1.773,2.49,2.49,0,0,0,.459-2.359,2.623,2.623,0,0,0-2.3-1.312,4.053,4.053,0,0,1-.738-.155A4.564,4.564,0,0,1,83.1,24.394c-.074-.165-.147-.327-.221-.485-.125-.267-.253-.6-.388-.948a8.669,8.669,0,0,0-1.556-2.877,6.622,6.622,0,0,0-3.045-1.379c-.346-.094-.672-.182-.877-.257a1.369,1.369,0,0,0-.786-.049,2.924,2.924,0,0,0-1.213.512,1.552,1.552,0,0,0-.267.277c-.218-.127-.459-.282-.658-.414a1.782,1.782,0,0,0-.163-.95c-.663-1.4-2.735-1.3-3.145-1.268-.2.017-.458.026-.732.036-.393.014-.822.029-1.255.07l.236-.657a2.2,2.2,0,0,1,2.061-1.45H75.57l4.916,1.727,1.229,1.173V18a1.369,1.369,0,0,0,.155.633L84.462,23.6a1.367,1.367,0,0,0,1.685.65l.755-.278a13.476,13.476,0,0,0,4.833-3.093,1.367,1.367,0,0,0,.379-1.208.142.142,0,0,1,.023.022l1.234,1.445a.146.146,0,0,1,.026.045l1.362,3.745a1.367,1.367,0,0,0,2.252.5l.648-.648a3.413,3.413,0,0,0,.438-.538q.073.923.075,1.865A23.4,23.4,0,0,1,74.8,49.473ZM81.09,64.531a4.109,4.109,0,0,1,3.867,2.734H64.645a4.109,4.109,0,0,1,3.867-2.734Z" transform="translate(-42.536)"/>
        </g>
      </g>
      <g id="Group_40" data-name="Group 40" transform="translate(51.547 46.169)">
        <g id="Group_39" data-name="Group 39">
          <path id="Path_45" data-name="Path 45" d="M110.212,338.989a1.486,1.486,0,0,0-1.486,1.486v.237a1.486,1.486,0,0,0,2.972,0v-.237A1.486,1.486,0,0,0,110.212,338.989Z" transform="translate(-108.726 -338.989)"/>
        </g>
      </g>
    </g>
  </g>
</svg>
